<ttFont>
<head>
    <!-- Most of this table will be recalculated by the compiler -->
    <tableVersion value="1.0"/>
    <fontRevision value="2.10999"/>
    <checkSumAdjustment value="0xc4248633"/>
    <magicNumber value="0x5f0f3cf5"/>
    <flags value="00000000 00000011"/>
    <unitsPerEm value="1000"/>
    <created value="Wed Apr  5 21:29:30 2017"/>
    <modified value="Wed Apr  5 21:29:30 2017"/>
    <xMin value="-56"/>
    <yMin value="-270"/>
    <xMax value="1603"/>
    <yMax value="989"/>
    <macStyle value="00000000 00000000"/>
    <lowestRecPPEM value="3"/>
    <fontDirectionHint value="2"/>
    <indexToLocFormat value="0"/>
    <glyphDataFormat value="0"/>
  </head>
          <CharString index="0">
            -1 554 157 rmoveto
            -96 callsubr
            -32 callsubr
            84 callsubr
            96 callsubr
            326 -57 callsubr
            return
          </CharString>
          <CharString index="1">
            -78 callsubr
            79 callsubr
            549 -92 -110 -102 callsubr
            return
          </CharString>
          <CharString index="2">
            170 -23 callsubr
            4 callsubr
            -98 callsubr
            return
          </CharString>
          <CharString index="3">
            30 24 24 30 30 -24 24 -30 -30 -24 -24 -30 -30 24 -24 30 hvcurveto
            return
          </CharString>
          <CharString index="4">
            -82 callsubr
            161 hmoveto
            -104 callsubr
            return
          </CharString>
          <CharString index="5">
            vlineto
            -100 callsubr
            return
          </CharString>
          <CharString index="6">
            20 38 callsubr
            -2 callsubr
            5 callsubr
            173 -122 111 -155 -3 callsubr
            vhcurveto
            460 hmoveto
            -136 -94 -72 -97 -97 -79 72 136 138 84 71 97 97 89 -71 -138 vhcurveto
            return
          </CharString>
          <CharString index="7">
            -83 callsubr
            464 -4 -97 callsubr
            return
          </CharString>
          <CharString index="8">
            -103 callsubr
            endchar
          </CharString>
          <CharString index="9">
            -58 callsubr
            612 hmoveto
            -43 callsubr
            -46 callsubr
            vhcurveto
            return
          </CharString>
          <CharString index="10">
            rmoveto
            -60 callsubr
            -59 callsubr
            vhcurveto
            return
          </CharString>
          <CharString index="11">
            -98 hlineto
            -51 -22 -50 -40 -79 hhcurveto
            -96 -72 65 112 -5 hvcurveto
            437 -45 callsubr
            -163 -110 -111 -173 return
          </CharString>
          <CharString index="12">
            16 553 -73 callsubr
            -326 vlineto
            -155 98 -77 115 76 66 32 65 37 vhcurveto
            return
          </CharString>
          <CharString index="13">
            -95 callsubr
            -88 91 vlineto
            return
          </CharString>
          <CharString index="14">
            61 74 243 rmoveto
            -171 119 -79 144 142 121 79 171 vhcurveto
            -70 callsubr
            return
          </CharString>
          <CharString index="15">
            hhcurveto
            -149 -111 50 callsubr
            111 106 149 -51 callsubr
            -41 callsubr
            hvcurveto
            return
          </CharString>
          <CharString index="16">
            79 296 30 callsubr
            -252 -693 rlineto
            93 hlineto
            54 152 rlineto
            308 hlineto
            54 -152 rlineto
            94 hlineto
            -251 57 callsubr
            return
          </CharString>
          <CharString index="17">
            rmoveto
            57 hlineto
            28 3 18 14 21 40 19 -45 52 hhcurveto
            53 42 36 69 9 hvcurveto
            -57 hlineto
            -29 -3 -18 -13 -21 -40 -18 44 -52 hhcurveto
            -54 -42 -35 -69 -9 hvcurveto
            return
          </CharString>
          <CharString index="18">
            -80 callsubr
            endchar
          </CharString>
          <CharString index="19">
            -79 callsubr
            -114 102 -66 131 155 79 101 100 vhcurveto
            26 callsubr
            return
          </CharString>
          <CharString index="20">
            -21 callsubr
            -109 7 79 -64 122 hhcurveto
            123 84 64 91 hvcurveto
            -56 callsubr
            return
          </CharString>
          <CharString index="21">
            -138 86 rlineto
            -77 vlineto
            138 -83 139 83 rlineto
            77 vlineto
            endchar
          </CharString>
          <CharString index="22">
            rmoveto
            -86 callsubr
          </CharString>
          <CharString index="23">
            rmoveto
            -75 callsubr
            vhcurveto
            return
          </CharString>
          <CharString index="24">
            -81 callsubr
            hvcurveto
            return
          </CharString>
          <CharString index="25">
            rmoveto
            -104 callsubr
            return
          </CharString>
          <CharString index="26">
            67 -34 -71 52 -97 hhcurveto
            -148 -114 -110 -170 return
          </CharString>
          <CharString index="27">
            rmoveto
            -70 vlineto
            213 112 rlineto
            84 vlineto
            return
          </CharString>
          <CharString index="28">
            rmoveto
            79 58 37 75 82 44 -49 -50 5 vhcurveto
            101 hlineto
            109 -12 -84 66 -127 hhcurveto
            -142 -89 -79 -116 hvcurveto
            -264 378 135 -187 vvcurveto
            -68 -53 -53 -92 -91 -40 47 58 -5 vhcurveto
            -97 hlineto
            return
          </CharString>
          <CharString index="29">
            58 39 278 -84 callsubr
            return
          </CharString>
          <CharString index="30">
            -97 callsubr
            -464 4 -84 callsubr
            -126 vlineto
            -115 -71 -62 -102 -86 -70 47 62 -17 vhcurveto
            -89 hlineto
            -112 14 109 -76 139 hhcurveto
            160 105 106 150 hvcurveto
            563 18 callsubr
            return
          </CharString>
          <CharString index="31">
            -90 callsubr
            endchar
          </CharString>
          <CharString index="32">
            -42 callsubr
            97 71 53 68 34 return
          </CharString>
          <CharString index="33">
            -12 callsubr
            -37 callsubr
            276 hlineto
            return
          </CharString>
          <CharString index="34">
            549 rmoveto
            -91 -311 hlineto
            -112 -60 -57 -91 -91 -60 57 112 vhcurveto
            311 -90 return
          </CharString>
          <CharString index="35">
            rmoveto
            -79 -44 -52 -104 vhcurveto
            -134 262 134 hlineto
            88 callsubr
            hvcurveto
            -373 204 rmoveto
            -693 91 286 89 vlineto
            182 -286 rlineto
            114 hlineto
            -191 290 rlineto
            127 20 53 86 93 vvcurveto
            44 callsubr
            vhcurveto
            return
          </CharString>
          <CharString index="36">
            -38 callsubr
            325 vlineto
            156 -98 77 -115 -76 -66 -33 -65 -37 vhcurveto
            return
          </CharString>
          <CharString index="37">
            450 -91 -450 vlineto
            -119 -69 -52 -103 -103 -68 52 119 90 callsubr
            -92 vlineto
            return
          </CharString>
          <CharString index="38">
            rmoveto
            -139 83 -138 -83 rlineto
            -77 vlineto
            138 86 139 -86 rlineto
            return
          </CharString>
          <CharString index="39">
            rmoveto
            -65 47 -39 57 58 47 39 65 65 -47 40 -58 -57 -47 -40 -65 vhcurveto
            157 1 rmoveto
            -31 -23 -22 -30 -29 -23 22 31 31 23 21 29 30 23 -21 -31 vhcurveto
            return
          </CharString>
          <CharString index="40">
            10 callsubr
            -146 196 185 142 132 178 19 vhcurveto
            72 -382 -72 286 vlineto
            -141 -15 -93 -89 -142 -92 callsubr
            return
          </CharString>
          <CharString index="41">
            -25 149 508 -88 callsubr
            return
          </CharString>
          <CharString index="42">
            -69 callsubr
            endchar
          </CharString>
          <CharString index="43">
            -110 hlineto
            -76 -40 -75 -42 -92 -92 callsubr
            return
          </CharString>
          <CharString index="44">
            35 callsubr
            49 callsubr
            vhcurveto
            -64 callsubr
            return
          </CharString>
          <CharString index="45">
            -86 55 394 -87 callsubr
            return
          </CharString>
          <CharString index="46">
            16 75 hmoveto
            -71 callsubr
            return
          </CharString>
          <CharString index="47">
            -128 -88 -77 -98 -96 -89 80 129 return
          </CharString>
          <CharString index="48">
            129 89 72 96 98 88 -76 -129 return
          </CharString>
          <CharString index="49">
            208 -156 145 -196 -41 callsubr
            vhcurveto
            return
          </CharString>
          <CharString index="50">
            rmoveto
            96 -44 callsubr
            93 hhcurveto
            return
          </CharString>
          <CharString index="51">
            214 -324 -106 146 vvcurveto
            47 39 39 72 70 38 -43 -59 3 vhcurveto
            94 hlineto
            107 -6 -73 67 -119 hhcurveto
            -129 -80 -75 -89 hvcurveto
            return
          </CharString>
          <CharString index="52">
            -98 hlineto
            -66 -22 -51 -36 -78 hhcurveto
            -101 -72 72 136 137 72 72 101 78 52 -39 -63 21 hvcurveto
            98 hlineto
            110 -32 -82 67 -135 hhcurveto
            -156 -110 -112 -172 hvcurveto
            return
          </CharString>
          <CharString index="53">
            -12 38 callsubr
            -32 callsubr
            74 103 32 vhcurveto
            -55 callsubr
            return
          </CharString>
          <CharString index="54">
            5 448 489 -72 callsubr
            return
          </CharString>
          <CharString index="55">
            34 callsubr
            -3 67 callsubr
            return
          </CharString>
          <CharString index="56">
            92 75 -41 -76 40 hvcurveto
            110 hlineto
            131 -55 -121 67 -141 hhcurveto
            return
          </CharString>
          <CharString index="57">
            -61 callsubr
            89 -91 vlineto
            return
          </CharString>
          <CharString index="58">
            rmoveto
            213 -112 rlineto
            70 vlineto
            -213 126 rlineto
            return
          </CharString>
          <CharString index="59">
            vlineto
            -68 35 70 -53 98 hhcurveto
            148 114 117 170 170 -114 110 -148 -98 -70 -52 -67 -35 hvcurveto
            371 -161 rmoveto
            -129 -88 -80 -98 -96 -89 77 128 129 89 76 96 98 88 -72 -129 vhcurveto
            endchar
          </CharString>
          <CharString index="60">
            -49 callsubr
            endchar
          </CharString>
          <CharString index="61">
            166 112 106 149 148 111 -106 -166 return
          </CharString>
          <CharString index="62">
            hlineto
            3 19 1 18 17 vvcurveto
            150 -105 111 -156 return
          </CharString>
          <CharString index="63">
            76 -66 -108 1 hvcurveto
            -345 hlineto
            110 7 72 64 return
          </CharString>
          <CharString index="64">
            -166 -111 -107 -148 -149 -112 107 166 return
          </CharString>
          <CharString index="65">
            -170 114 -117 148 return
          </CharString>
          <CharString index="66">
            -196 -157 -145 -208 return
          </CharString>
          <CharString index="67">
            108 -89 callsubr
          </CharString>
          <CharString index="68">
            46 555 rmoveto
            -91 62 -57 83 84 62 57 91 92 -62 56 -84 -83 -62 -56 -92 vhcurveto
            145 91 rmoveto
            42 27 -26 -65 97 callsubr
            65 27 26 42 hvcurveto
            -97 -646 rmoveto
            65 callsubr
            -151 -555 rmoveto
            -92 62 -56 83 83 63 56 92 91 -63 57 -83 -83 25 callsubr
            -42 -27 27 64 64 27 27 42 hvcurveto
            return
          </CharString>
          <CharString index="69">
            76 callsubr
            113 60 56 91 92 59 -56 -113 vhcurveto
            -310 90 return
          </CharString>
          <CharString index="70">
            367 72 -25 callsubr
            return
          </CharString>
          <CharString index="71">
            rmoveto
            -80 -154 rlineto
            62 hlineto
            101 154 rlineto
            -246 hmoveto
            -67 -154 rlineto
            62 hlineto
            89 154 rlineto
            endchar
          </CharString>
          <CharString index="72">
            rmoveto
            -550 vlineto
            -366 550 rlineto
            -91 -693 91 550 hlineto
            366 -550 rlineto
            91 693 hlineto
            return
          </CharString>
          <CharString index="73">
            rmoveto
            19 -58 vlineto
            -47 -20 -27 -65 -65 -20 27 47 vhcurveto
            -57 -18 hlineto
            -73 50 -57 92 92 51 56 73 vhcurveto
            return
          </CharString>
          <CharString index="74">
            32 15 callsubr
            -32 -6 callsubr
            return
          </CharString>
          <CharString index="75">
            -171 110 -112 156 135 82 return
          </CharString>
          <CharString index="76">
            -64 53 -41 74 -22 callsubr
            return
          </CharString>
          <CharString index="77">
            -159 410 549 rmoveto
            -368 -74 265 hlineto
            -265 -401 rlineto
            -74 368 74 -265 vlineto
            265 401 rlineto
            return
          </CharString>
          <CharString index="78">
            86 532 693 -35 callsubr
            return
          </CharString>
          <CharString index="79">
            -15 callsubr
            54 41 64 64 -54 38 -76 hvcurveto
            return
          </CharString>
          <CharString index="80">
            -70 492 30 callsubr
            -442 -73 338 hlineto
            -338 -548 rlineto
            -72 442 72 -337 vlineto
            337 548 rlineto
            return
          </CharString>
          <CharString index="81">
            -104 callsubr
            endchar
          </CharString>
          <CharString index="82">
            -276 242 246 71 -246 236 return
          </CharString>
          <CharString index="83">
            rmoveto
            -86 49 -52 callsubr
            return
          </CharString>
          <CharString index="84">
            -16 callsubr
            -147 196 return
          </CharString>
          <CharString index="85">
            2 callsubr
            30 21 11 35 hvcurveto
            47 return
          </CharString>
          <CharString index="86">
            rmoveto
            -201 325 98 -144 vvcurveto
            -50 -40 -34 -77 -68 -43 40 61 -3 vhcurveto
            -94 hlineto
            return
          </CharString>
          <CharString index="87">
            92 74 -75 hlineto
            -51 -17 18 49 hvcurveto
            334 142 74 -142 136 -92 -136 81 callsubr
          </CharString>
          <CharString index="88">
            rmoveto
            71 hlineto
            23 8 18 13 33 hhcurveto
            37 23 -20 -31 -31 -26 -17 -36 hvcurveto
            -41 -50 42 hlineto
            37 26 -18 -31 -32 -26 -19 -36 -33 -24 15 33 -6 hvcurveto
            -71 hlineto
            -65 5 48 -39 82 hhcurveto
            83 55 45 53 42 -29 27 -35 11 hvcurveto
            2 vlineto
            35 11 28 27 42 vvcurveto
            58 -63 45 -71 -72 -56 -38 -56 -6 vhcurveto
            endchar
          </CharString>
          <CharString index="89">
            55 vlineto
            -28 callsubr
            return
          </CharString>
          <CharString index="90">
            67 hlineto
            39 5 34 22 31 59 27 -64 76 hhcurveto
            72 56 43 100 18 hvcurveto
            -68 hlineto
            -40 -5 -33 -21 -32 -58 -28 64 -76 hhcurveto
            -71 -56 -43 -100 -18 hvcurveto
            return
          </CharString>
          <CharString index="91">
            39 347 10 callsubr
            return
          </CharString>
          <CharString index="92">
            35 21 -11 -30 -30 -21 -12 -35 hvcurveto
            -107 -63 119 hlineto
            73 return
          </CharString>
          <CharString index="93">
            rmoveto
            -256 hlineto
            128 358 rlineto
            endchar
          </CharString>
          <CharString index="94">
            100 4 302 rmoveto
            87 -302 -4 callsubr
            -219 -309 -87 hlineto
            178 -314 rmoveto
            232 192 82 -192 232 128 vlineto
            176 93 -104 -169 -169 -93 -104 -176 hvcurveto
            endchar
          </CharString>
          <CharString index="95">
            -107 442 30 callsubr
            -367 -693 return
          </CharString>
          <CharString index="96">
            rmoveto
            -100 52 -41 91 vhcurveto
            -20 callsubr
          </CharString>
          <CharString index="97">
            rmoveto
            352 73 -352 hlineto
            endchar
          </CharString>
          <CharString index="98">
            rmoveto
            126 56 37 87 vhcurveto
            24 95 hlineto
            -83 -54 -39 -63 -30 hvcurveto
            93 -91 -549 91 vlineto
            return
          </CharString>
          <CharString index="99">
            -55 229 9 rmoveto
            -109 -266 rlineto
            94 hlineto
            331 806 rlineto
            -94 hlineto
            -171 -444 -168 444 rlineto
            -100 hlineto
            return
          </CharString>
          <CharString index="100">
            -40 241 262 rmoveto
            -262 91 262 vlineto
            225 431 14 callsubr
            return
          </CharString>
          <CharString index="101">
            -32 -26 -26 -33 -32 26 -26 32 hvcurveto
            return
          </CharString>
          <CharString index="102">
            rmoveto
            -93 51 7 callsubr
            -15 98 callsubr
            95 28 71 139 -33 hvcurveto
            endchar
          </CharString>
          <CharString index="103">
            219 hlineto
            223 139 126 217 217 -139 133 -223 hvcurveto
            return
          </CharString>
          <CharString index="104">
            -156 -121 -111 -173 return
          </CharString>
          <CharString index="105">
            -171 114 -112 155 return
          </CharString>
          <CharString index="106">
            -244 166 300 -9 callsubr
            return
          </CharString>
          <CharString index="107">
            122 -85 callsubr
          </CharString>
          <CharString index="108">
            84 294 30 callsubr
            -219 -693 -4 callsubr
            -128 -623 rmoveto
            546 128 vlineto
            177 92 -104 -169 -169 -92 -104 -177 hvcurveto
            return
          </CharString>
          <CharString index="109">
            vhcurveto
            91 63 -79 hlineto
            -35 -21 12 30 return
          </CharString>
          <CharString index="110">
            rmoveto
            73 hlineto
            24 4 16 17 28 hhcurveto
            29 23 -22 -36 -43 -28 -32 -42 -34 hvcurveto
            -102 -81 rlineto
            -52 252 61 -165 vlineto
            71 50 rlineto
            63 47 28 35 50 vvcurveto
            61 -49 54 -78 -78 -42 -43 -56 -3 vhcurveto
            endchar
          </CharString>
          <CharString index="111">
            196 156 147 207 return
          </CharString>
          <CharString index="112">
            157 128 112 171 return
          </CharString>
          <CharString index="113">
            -426 39 67 -5 callsubr
          </CharString>
          <CharString index="114">
            -23 vlineto
            -35 -14 return
          </CharString>
          <CharString index="115">
            17 callsubr
            98 callsubr
            66 27 callsubr
            return
          </CharString>
          <CharString index="116">
            89 callsubr
            48 -52 callsubr
            return
          </CharString>
          <CharString index="117">
            rmoveto
            -207 157 return
          </CharString>
          <CharString index="118">
            46 hlineto
            69 26 29 81 vhcurveto
            74 vlineto
            -137 -62 -52 -120 hvcurveto
            -46 75 callsubr
            return
          </CharString>
          <CharString index="119">
            rmoveto
            13 callsubr
            return
          </CharString>
          <CharString index="120">
            -31 callsubr
            61 return
          </CharString>
          <CharString index="121">
            rlineto
            -101 hlineto
            -170 -347 -171 347 rlineto
            -100 hlineto
            return
          </CharString>
          <CharString index="122">
            26 26 32 33 -26 26 return
          </CharString>
          <CharString index="123">
            498 60 callsubr
            -136 -93 -72 -97 -97 -80 72 136 138 85 71 97 97 88 -71 -138 vhcurveto
            -459 hmoveto
            -2 callsubr
            return
          </CharString>
          <CharString index="124">
            89 callsubr
            49 83 callsubr
            return
          </CharString>
          <CharString index="125">
            70 callsubr
            24 callsubr
            return
          </CharString>
          <CharString index="126">
            76 callsubr
            283 -310 rlineto
            121 hlineto
            -324 342 324 351 rlineto
            -119 hlineto
            -285 -321 rlineto
            321 91 callsubr
          </CharString>
          <CharString index="127">
            91 241 hlineto
            215 -241 rlineto
            123 hlineto
            -259 276 259 273 rlineto
            -128 hlineto
            -210 -243 rlineto
            434 91 callsubr
          </CharString>
          <CharString index="128">
            rmoveto
            35 27 27 35 34 -27 29 callsubr
            return
          </CharString>
          <CharString index="129">
            94 hmoveto
            92 475 115 74 -115 11 callsubr
            return
          </CharString>
          <CharString index="130">
            -91 hlineto
            -70 -40 callsubr
          </CharString>
          <CharString index="131">
            vlineto
            -83 callsubr
            return
          </CharString>
          <CharString index="132">
            -62 -57 -91 vhcurveto
            145 91 rmoveto
            42 27 -27 -64 -64 -27 -27 -42 return
          </CharString>
          <CharString index="133">
            260 -378 -136 190 vvcurveto
            return
          </CharString>
          <CharString index="134">
            28 callsubr
            -8 35 hvcurveto
            return
          </CharString>
          <CharString index="135">
            36 43 callsubr
            return
          </CharString>
          <CharString index="136">
            28 -35 -34 -27 -28 -34 -35 27 -27 34 hvcurveto
            return
          </CharString>
          <CharString index="137">
            693 rmoveto
            return
          </CharString>
          <CharString index="138">
            vlineto
            -57 -10 -37 -36 -53 vvcurveto
            -31 callsubr
            return
          </CharString>
          <CharString index="139">
            127 578 rmoveto
            48 callsubr
            -65 -36 -33 -80 -27 4 -30 8 -35 hvcurveto
            return
          </CharString>
          <CharString index="140">
            -382 115 285 rmoveto
            -33 callsubr
            endchar
          </CharString>
          <CharString index="141">
            94 callsubr
            66 35 52 callsubr
            return
          </CharString>
          <CharString index="142">
            165 -16 callsubr
            -146 196 return
          </CharString>
          <CharString index="143">
            rmoveto
            183 -620 91 620 183 73 -457 hlineto
            return
          </CharString>
          <CharString index="144">
            -693 334 70 -243 623 vlineto
            return
          </CharString>
          <CharString index="145">
            39 60 callsubr
            return
          </CharString>
          <CharString index="146">
            -91 hlineto
            184 125 -65 callsubr
          </CharString>
          <CharString index="147">
            78 callsubr
            65 28 callsubr
            -7 35 hvcurveto
            return
          </CharString>
          <CharString index="148">
            -86 49 94 callsubr
            65 27 callsubr
            endchar
          </CharString>
          <CharString index="149">
            -25 94 327 rmoveto
            399 78 -399 hlineto
            endchar
          </CharString>
          <CharString index="150">
            52 callsubr
            -4 30 return
          </CharString>
          <CharString index="151">
            114 -78 90 -162 return
          </CharString>
          <CharString index="152">
            -575 rmoveto
            236 -97 vlineto
            -157 -243 rlineto
            -42 181 -69 73 69 48 49 vlineto
            return
          </CharString>
          <CharString index="153">
            131 295 rmoveto
            99 175 rlineto
            -89 hlineto
            -96 -175 96 -175 rlineto
            89 hlineto
            return
          </CharString>
          <CharString index="154">
            -91 hlineto
            -70 150 -47 callsubr
          </CharString>
          <CharString index="155">
            86 -49 23 vlineto
            35 14 17 33 vhcurveto
            44 vlineto
            return
          </CharString>
          <CharString index="156">
            141 121 67 131 55 return
          </CharString>
          <CharString index="157">
            107 166 166 return
          </CharString>
          <CharString index="158">
            91 740 99 callsubr
          </CharString>
          <CharString index="159">
            33 80 27 return
          </CharString>
          <CharString index="160">
            hmoveto
            -33 callsubr
            return
          </CharString>
          <CharString index="161">
            10 242 rlineto
            -91 hlineto
            10 -242 -193 10 rlineto
            -73 vlineto
            193 9 return
          </CharString>
          <CharString index="162">
            63 callsubr
            99 -175 -99 -175 rlineto
            endchar
          </CharString>
          <CharString index="163">
            -33 68 callsubr
            return
          </CharString>
          <CharString index="164">
            693 rlineto
            return
          </CharString>
          <CharString index="165">
            75 hmoveto
            91 return
          </CharString>
          <CharString index="166">
            33 15 callsubr
            -33 -6 callsubr
            return
          </CharString>
          <CharString index="167">
            274 rmoveto
            return
          </CharString>
          <CharString index="168">
            -183 75 30 callsubr
            37 callsubr
            return
          </CharString>
          <CharString index="169">
            -73 82 -170 rmoveto
            90 hlineto
            273 1112 rlineto
            -90 hlineto
            endchar
          </CharString>
          <CharString index="170">
            96 175 -96 175 rlineto
            -89 hlineto
            return
          </CharString>
          <CharString index="171">
            rmoveto
            73 352 -124 -55 51 hlineto
            return
          </CharString>
          <CharString index="172">
            91 hlineto
            405 57 callsubr
            -91 hlineto
            return
          </CharString>
          <CharString index="173">
            rmoveto
            63 hlineto
            12 199 rlineto
            -87 hlineto
            return
          </CharString>
          <CharString index="174">
            30 69 callsubr
            return
          </CharString>
          <CharString index="175">
            vhcurveto
            -44 vlineto
            return
          </CharString>
          <CharString index="176">
            -8 35 hvcurveto
            return
          </CharString>
          <CharString index="177">
            -92 -110 return
          </CharString>
          <CharString index="178">
            740 85 callsubr
            -43 vlineto
            return
          </CharString>
          <CharString index="179">
            -240 10 637 -10 callsubr
          </CharString>
          <CharString index="180">
            -91 hlineto
            -131 88 -10 callsubr
          </CharString>
          <CharString index="181">
            32 -26 26 -32 -33 -26 -26 -32 return
          </CharString>
          <CharString index="182">
            -71 -74 71 vlineto
            return
          </CharString>
          <CharString index="183">
            91 310 hlineto
            return
          </CharString>
          <CharString index="184">
            hlineto
            250 -196 rmoveto
            207 196 -207 hlineto
            return
          </CharString>
          <CharString index="185">
            -48 rmoveto
            -86 49 94 callsubr
            return
          </CharString>
          <CharString index="186">
            -112 92 return
          </CharString>
          <CharString index="187">
            37 callsubr
            endchar
          </CharString>
          <CharString index="188">
            75 callsubr
            endchar
          </CharString>
          <CharString index="189">
            hlineto
            43 200 rlineto
            -88 hlineto
            -43 -200 rlineto
            return
          </CharString>
          <CharString index="190">
            7 callsubr
            -17 return
          </CharString>
          <CharString index="191">
            77 89 32 return
          </CharString>
          <CharString index="192">
            rmoveto
            -86 49 7 callsubr
            -18 -33 vhcurveto
            return
          </CharString>
          <CharString index="193">
            134 hlineto
            171 69 return
          </CharString>
          <CharString index="194">
            58 166 439 rmoveto
            return
          </CharString>
          <CharString index="195">
            104 44 -51 -80 return
          </CharString>
          <CharString index="196">
            -48 rmoveto
            -86 return
          </CharString>
          <CharString index="197">
            vhcurveto
            450 return
          </CharString>
          <CharString index="198">
            -91 vlineto
            endchar
          </CharString>
          <CharString index="199">
            rmoveto
            262 134 vlineto
            104 44 -51 return
          </CharString>
          <CharString index="200">
            hmoveto
            108 171 rlineto
            -171 vlineto
            return
          </CharString>
          <CharString index="201">
            83 callsubr
            56 callsubr
            return
          </CharString>
          <CharString index="202">
            hlineto
            -57 -10 -37 -36 -53 vvcurveto
            endchar
          </CharString>
          <CharString index="203">
            vhcurveto
            -249 return
          </CharString>
          <CharString index="204">
            -64 -27 -27 -42 -42 -27 27 64 return
          </CharString>
          <CharString index="205">
            -34 68 callsubr
            return
          </CharString>
          <CharString index="206">
            -91 hlineto
            endchar
          </CharString>
        <CharString name=".notdef">
          139 176 hmoveto
          399 701 -399 hlineto
          59 -55 rmoveto
          281 -591 -281 hlineto
          endchar
        </CharString>
        <CharString name="A">
          -91 callsubr
          77 -469 -14 callsubr
        </CharString>
        <CharString name="AE">
          284 466 627 rmoveto
          -403 -228 vlineto
          595 397 rmoveto
          72 -425 vlineto
          -395 -693 rlineto
          99 hlineto
          86 152 rlineto
          268 -152 -37 callsubr
          hlineto
          endchar
        </CharString>
        <CharString name="Aacute">
          -91 callsubr
          -166 108 -80 callsubr
          30 -703 -14 callsubr
        </CharString>
        <CharString name="Abreve">
          -91 callsubr
          93 190 -34 callsubr
          -16 -659 -14 callsubr
        </CharString>
        <CharString name="Acircumflex">
          -91 callsubr
          89 125 -69 callsubr
          -12 -517 -14 callsubr
        </CharString>
        <CharString name="Adieresis">
          -91 callsubr
          -131 71 -103 callsubr
          47 -540 -14 callsubr
        </CharString>
        <CharString name="Agrave">
          -91 callsubr
          -166 150 -49 callsubr
          243 -703 -14 callsubr
        </CharString>
        <CharString name="Amacron">
          -91 callsubr
          -226 88 rmoveto
          352 73 -352 hlineto
          303 -630 -14 callsubr
        </CharString>
        <CharString name="Aogonek">
          79 44 hmoveto
          93 hlineto
          55 152 rlineto
          307 hlineto
          55 -152 rlineto
          -57 -11 -35 -34 -52 vvcurveto
          -64 53 -41 73 -22 callsubr
          58 hlineto
          -251 691 rlineto
          -100 hlineto
          177 -469 rmoveto
          -256 hlineto
          128 357 rlineto
          endchar
        </CharString>
        <CharString name="Aring">
          -91 callsubr
          -154 163 -68 callsubr
          74 -633 -14 callsubr
        </CharString>
        <CharString name="Atilde">
          -91 callsubr
          -200 58 -90 callsubr
          277 -527 -14 callsubr
        </CharString>
        <CharString name="B">
          0 453 505 rmoveto
          -69 -50 -44 -84 vhcurveto
          -153 228 153 hlineto
          84 50 -45 -70 hvcurveto
          108 -322 rmoveto
          83 -58 75 -91 15 vhcurveto
          82 23 51 50 80 vvcurveto
          103 -75 81 -147 vhcurveto
          -248 -693 260 hlineto
          140 86 81 102 hvcurveto
          -90 13 rmoveto
          -77 -52 -47 -89 vhcurveto
          -164 247 157 hlineto
          89 59 -47 -76 hvcurveto
          endchar
        </CharString>
        <CharString name="C">
          -63 callsubr
          endchar
        </CharString>
        <CharString name="CR">
          -312 endchar
        </CharString>
        <CharString name="Cacute">
          -63 callsubr
          234 454 -89 callsubr
        </CharString>
        <CharString name="Ccaron">
          -63 callsubr
          349 468 -85 callsubr
        </CharString>
        <CharString name="Ccedilla">
          165 39 347 rmoveto
          -195 140 -141 180 -16 vhcurveto
          -109 -18 callsubr
          48 vlineto
          128 9 107 67 51 121 rrcurveto
          -64 callsubr
          endchar
        </CharString>
        <CharString name="D">
          1 callsubr
          endchar
        </CharString>
        <CharString name="Dcaron">
          1 callsubr
          54 745 -85 callsubr
        </CharString>
        <CharString name="Dcroat">
          -13 callsubr
        </CharString>
        <CharString name="E">
          -74 callsubr
          endchar
        </CharString>
        <CharString name="Eacute">
          -74 callsubr
          -305 180 -89 callsubr
        </CharString>
        <CharString name="Ecaron">
          -74 callsubr
          -190 194 -85 callsubr
        </CharString>
        <CharString name="Ecircumflex">
          -74 callsubr
          -51 197 -65 callsubr
        </CharString>
        <CharString name="Edieresis">
          -74 callsubr
          -270 143 -99 callsubr
        </CharString>
        <CharString name="Edotaccent">
          -74 callsubr
          -189 143 rmoveto
          -26 callsubr
        </CharString>
        <CharString name="Egrave">
          -74 callsubr
          -305 222 -47 callsubr
        </CharString>
        <CharString name="Emacron">
          -74 callsubr
          -365 160 -10 callsubr
        </CharString>
        <CharString name="Eogonek">
          -12 callsubr
          266 hlineto
          -52 -12 -33 -35 -50 vvcurveto
          -31 callsubr
          128 -25 callsubr
          276 hlineto
          endchar
        </CharString>
        <CharString name="Eth">
          -13 callsubr
        </CharString>
        <CharString name="Euro">
          186 458 398 rmoveto
          67 -238 vlineto
          97 39 89 57 110 hhcurveto
          -51 callsubr
          -156 -132 -92 -143 -47 hvcurveto
          -95 -67 80 hlineto
          -2 -16 -1 -18 -17 vvcurveto
          -17 1 -17 2 -16 vhcurveto
          -80 -68 95 hlineto
          -142 47 132 -93 156 hhcurveto
          49 callsubr
          hvcurveto
          -110 hlineto
          -76 -40 -75 -42 -92 hhcurveto
          -110 -89 58 97 -39 hvcurveto
          238 68 -256 hlineto
          -3 16 -1 17 17 vvcurveto
          18 1 17 3 16 vhcurveto
          endchar
        </CharString>
        <CharString name="F">
          -122 58 callsubr
          313 236 72 -236 235 299 73 -390 hlineto
          endchar
        </CharString>
        <CharString name="G">
          165 39 347 -67 callsubr
          endchar
        </CharString>
        <CharString name="Gbreve">
          165 39 347 -67 callsubr
          492 536 -34 callsubr
          endchar
        </CharString>
        <CharString name="H">
          70 515 hmoveto
          92 693 -92 -308 -349 308 -91 -693 91 313 349 hlineto
          endchar
        </CharString>
        <CharString name="I">
          58 callsubr
          693 99 callsubr
        </CharString>
        <CharString name="ITF">
          1122 147 hmoveto
          207 671 -207 77 callsubr
          250 -671 rmoveto
          207 671 -207 hlineto
          249 -196 rmoveto
          208 196 -208 hlineto
          250 -671 rmoveto
          208 671 -208 77 callsubr
          -434 vmoveto
          207 196 -207 hlineto
          endchar
        </CharString>
        <CharString name="Iacute">
          58 callsubr
          693 23 callsubr
        </CharString>
        <CharString name="Icircumflex">
          58 callsubr
          693 39 callsubr
        </CharString>
        <CharString name="Idieresis">
          58 callsubr
          693 -91 hlineto
          -35 71 -99 callsubr
        </CharString>
        <CharString name="Idotaccent">
          58 callsubr
          693 -91 hlineto
          45 71 rmoveto
          -26 callsubr
        </CharString>
        <CharString name="Igrave">
          58 callsubr
          693 47 callsubr
        </CharString>
        <CharString name="Imacron">
          58 callsubr
          693 73 callsubr
        </CharString>
        <CharString name="Iogonek">
          -19 -96 12 callsubr
          -1 687 -91 -690 95 callsubr
        </CharString>
        <CharString name="J">
          -60 346 181 rmoveto
          -58 -29 -50 -73 -72 -28 50 58 -1 vhcurveto
          -93 hlineto
          -115 79 -73 115 115 78 73 115 vhcurveto
          512 91 callsubr
        </CharString>
        <CharString name="K">
          -14 75 hmoveto
          19 callsubr
        </CharString>
        <CharString name="L">
          61 callsubr
          endchar
        </CharString>
        <CharString name="Lacute">
          61 callsubr
          -67 -40 callsubr
        </CharString>
        <CharString name="Lcaron">
          -174 282 693 85 callsubr
          -44 vlineto
          65 36 34 80 26 -4 31 -7 35 hvcurveto
          -299 hmoveto
          80 callsubr
        </CharString>
        <CharString name="Lslash">
          -183 4 272 rmoveto
          87 31 rlineto
          -303 334 70 -243 266 vlineto
          104 38 rlineto
          82 vlineto
          -104 -38 rlineto
          275 -91 -308 vlineto
          -87 -31 rlineto
          endchar
        </CharString>
        <CharString name="M">
          245 58 callsubr
          505 hlineto
          233 -505 rlineto
          59 hlineto
          232 505 rlineto
          -505 92 693 -93 vlineto
          -260 -568 -261 568 rlineto
          -93 hlineto
          endchar
        </CharString>
        <CharString name="N">
          -29 callsubr
          endchar
        </CharString>
        <CharString name="NULL">
          -612 endchar
        </CharString>
        <CharString name="Nacute">
          -29 callsubr
          -389 -40 callsubr
        </CharString>
        <CharString name="Ncaron">
          -29 callsubr
          -274 0 callsubr
        </CharString>
        <CharString name="Ntilde">
          -29 callsubr
          -423 58 -76 callsubr
        </CharString>
        <CharString name="O">
          -105 callsubr
          endchar
        </CharString>
        <CharString name="OE">
          469 131 347 rmoveto
          -46 callsubr
          -43 callsubr
          vhcurveto
          886 273 rmoveto
          73 -366 -131 vlineto
          95 -61 -92 43 -106 hhcurveto
          -194 -159 -143 -210 -207 157 -147 196 106 92 44 93 61 hvcurveto
          -130 366 72 -275 241 245 72 -245 235 vlineto
          endchar
        </CharString>
        <CharString name="Oacute">
          -105 callsubr
          -375 454 -89 callsubr
        </CharString>
        <CharString name="Ocircumflex">
          -105 callsubr
          -121 471 -65 callsubr
        </CharString>
        <CharString name="Odieresis">
          -105 callsubr
          -340 417 -99 callsubr
        </CharString>
        <CharString name="Ograve">
          -105 callsubr
          -375 496 -47 callsubr
        </CharString>
        <CharString name="Ohungarumlaut">
          -105 callsubr
          -144 552 -36 callsubr
        </CharString>
        <CharString name="Omacron">
          -105 callsubr
          -436 434 -10 callsubr
        </CharString>
        <CharString name="Oslash">
          170 28 hmoveto
          86 hlineto
          60 65 rlineto
          -46 60 75 -26 83 hhcurveto
          4 callsubr
          95 -33 83 -54 61 hvcurveto
          99 107 rlineto
          -86 hlineto
          -60 -64 rlineto
          45 -60 -75 26 -83 hhcurveto
          -41 callsubr
          -95 33 -83 56 -62 hvcurveto
          3 240 rmoveto
          166 112 106 149 62 55 -19 -33 44 vhcurveto
          -367 -396 rlineto
          -35 45 -20 60 71 vvcurveto
          520 hmoveto
          -166 -111 -107 -148 -62 -55 18 34 -44 vhcurveto
          366 396 rlineto
          34 -46 20 -59 -70 vvcurveto
          endchar
        </CharString>
        <CharString name="Otilde">
          -105 callsubr
          -409 404 -76 callsubr
        </CharString>
        <CharString name="P">
          -34 166 358 92 callsubr
          -80 -79 -44 -52 -104 hvcurveto
          240 131 rmoveto
          44 callsubr
          vhcurveto
          -225 -693 91 286 86 callsubr
          96 107 hvcurveto
          endchar
        </CharString>
        <CharString name="Q">
          173 -23 callsubr
          36 36 5 10 32 vhcurveto
          140 -139 rlineto
          120 hlineto
          -177 175 rlineto
          100 60 65 109 134 vvcurveto
          -98 callsubr
          endchar
        </CharString>
        <CharString name="R">
          -53 callsubr
          endchar
        </CharString>
        <CharString name="Racute">
          -53 callsubr
          -107 -40 callsubr
        </CharString>
        <CharString name="Rcaron">
          -53 callsubr
          8 0 callsubr
        </CharString>
        <CharString name="S">
          -66 callsubr
          endchar
        </CharString>
        <CharString name="Sacute">
          -66 callsubr
          29 293 -89 callsubr
        </CharString>
        <CharString name="Scaron">
          -66 callsubr
          145 307 -85 callsubr
        </CharString>
        <CharString name="T">
          -66 44 620 36 callsubr
          endchar
        </CharString>
        <CharString name="Tcaron">
          -66 44 620 36 callsubr
          229 0 callsubr
        </CharString>
        <CharString name="Thorn">
          -34 166 216 92 callsubr
          -81 -78 -44 -52 -104 hvcurveto
          240 130 rmoveto
          115 -78 89 -162 vhcurveto
          -135 143 -90 -693 91 144 86 callsubr
          95 107 hvcurveto
          endchar
        </CharString>
        <CharString name="U">
          -93 callsubr
          endchar
        </CharString>
        <CharString name="Uacute">
          -93 callsubr
          147 -40 callsubr
        </CharString>
        <CharString name="Ucircumflex">
          -93 callsubr
          401 125 -65 callsubr
        </CharString>
        <CharString name="Udieresis">
          -93 callsubr
          182 71 -99 callsubr
        </CharString>
        <CharString name="Ugrave">
          -93 callsubr
          147 150 -47 callsubr
        </CharString>
        <CharString name="Uhungarumlaut">
          -93 callsubr
          378 206 -36 callsubr
        </CharString>
        <CharString name="Umacron">
          -93 callsubr
          86 88 -10 callsubr
        </CharString>
        <CharString name="Uogonek">
          61 74 243 rmoveto
          -152 94 -79 122 -16 vhcurveto
          -5 -11 -3 -13 -13 vvcurveto
          -65 54 -40 73 vhcurveto
          91 63 -83 hlineto
          -34 -18 14 27 24 16 10 50 14 hvcurveto
          76 21 93 65 151 vvcurveto
          -70 callsubr
          endchar
        </CharString>
        <CharString name="Uring">
          -93 callsubr
          158 163 -68 callsubr
          endchar
        </CharString>
        <CharString name="V">
          68 291 hmoveto
          98 hlineto
          267 57 callsubr
          -97 hlineto
          -220 -596 -218 596 rlineto
          -97 hlineto
          endchar
        </CharString>
        <CharString name="W">
          368 220 -1 rmoveto
          101 1 167 560 156 -560 rlineto
          102 hlineto
          210 57 callsubr
          -96 hlineto
          -163 -587 -155 587 rlineto
          -100 hlineto
          -168 -589 -154 589 rlineto
          -96 hlineto
          endchar
        </CharString>
        <CharString name="X">
          17 479 hmoveto
          100 hlineto
          -213 346 214 347 rlineto
          -101 hlineto
          -159 -274 -169 274 rlineto
          -101 hlineto
          214 -346 -214 -347 rlineto
          101 hlineto
          159 273 rlineto
          endchar
        </CharString>
        <CharString name="Y">
          -7 callsubr
          endchar
        </CharString>
        <CharString name="Yacute">
          -7 callsubr
          156 -40 callsubr
        </CharString>
        <CharString name="Ydieresis">
          -7 callsubr
          191 71 -99 callsubr
        </CharString>
        <CharString name="Z">
          -27 callsubr
          endchar
        </CharString>
        <CharString name="Zacute">
          -27 callsubr
          -336 181 -89 callsubr
        </CharString>
        <CharString name="Zcaron">
          -27 callsubr
          -221 195 -85 callsubr
        </CharString>
        <CharString name="Zdotaccent">
          -27 callsubr
          -221 144 rmoveto
          -26 callsubr
        </CharString>
        <CharString name="a">
          -106 callsubr
          endchar
        </CharString>
        <CharString name="aacute">
          -106 callsubr
          -284 383 -89 callsubr
        </CharString>
        <CharString name="abreve">
          -106 callsubr
          -26 465 -34 callsubr
          endchar
        </CharString>
        <CharString name="acircumflex">
          -106 callsubr
          -30 400 -65 callsubr
        </CharString>
        <CharString name="acute">
          -379 10 657 -89 callsubr
        </CharString>
        <CharString name="adieresis">
          -106 callsubr
          -249 346 -99 callsubr
        </CharString>
        <CharString name="ae">
          472 1027 157 rmoveto
          -98 hlineto
          -52 -21 -49 -39 -79 hhcurveto
          -88 -83 65 112 -11 hvcurveto
          444 hlineto
          3 19 1 18 17 vvcurveto
          148 -103 113 -154 -82 -63 -24 -74 -52 vhcurveto
          89 -91 -89 vlineto
          71 -45 -67 27 -80 hhcurveto
          -156 -114 -110 -170 -42 callsubr
          88 72 43 60 40 hvcurveto
          -94 91 93 vlineto
          -62 39 72 -40 82 hhcurveto
          131 79 84 callsubr
          hvcurveto
          -246 326 rmoveto
          98 72 -66 -108 1 hvcurveto
          -354 hlineto
          107 12 80 67 91 hhcurveto
          -649 -205 rmoveto
          -59 callsubr
          -60 callsubr
          vhcurveto
          endchar
        </CharString>
        <CharString name="agrave">
          -106 callsubr
          -284 425 -47 callsubr
        </CharString>
        <CharString name="amacron">
          -106 callsubr
          -345 363 -10 callsubr
        </CharString>
        <CharString name="ampersand">
          56 122 197 rmoveto
          73 53 57 67 67 55 -57 -73 -73 -55 -58 -67 -67 -53 58 73 vhcurveto
          31 382 rmoveto
          -54 26 -49 43 -56 vhcurveto
          40 -30 rlineto
          6 -10 -5 3 -11 hhcurveto
          -108 -90 -82 -121 -121 91 -83 113 95 77 63 85 23 hvcurveto
          105 -140 rlineto
          111 hlineto
          -362 472 rlineto
          -36 48 -10 27 31 vvcurveto
          48 35 39 53 52 35 -38 -49 -12 -2 -17 -4 -12 vhcurveto
          92 hlineto
          4 14 3 18 14 vvcurveto
          80 -65 77 -115 -116 -64 -79 -82 vhcurveto
          endchar
        </CharString>
        <CharString name="aogonek">
          -78 callsubr
          -110 31 callsubr
          605 70 callsubr
          hlineto
          -100 callsubr
          endchar
        </CharString>
        <CharString name="approxequal">
          -92 38 204 rmoveto
          -17 callsubr
          211 vmoveto
          -17 callsubr
          endchar
        </CharString>
        <CharString name="aring">
          -106 callsubr
          -273 438 -68 callsubr
          endchar
        </CharString>
        <CharString name="asciicircum">
          20 498 170 rmoveto
          96 hlineto
          -236 523 rlineto
          -84 hlineto
          -236 -523 rlineto
          96 hlineto
          182 409 rlineto
          endchar
        </CharString>
        <CharString name="asciitilde">
          -92 38 251 rmoveto
          -17 callsubr
          endchar
        </CharString>
        <CharString name="asterisk">
          -120 286 734 rmoveto
          -82 hlineto
          18 -152 -122 92 -42 -73 142 -54 -142 -54 42 -75 122 93 -18 -151 rlineto
          82 hlineto
          -20 151 120 -91 40 73 -143 54 143 54 -40 72 -120 -91 rlineto
          endchar
        </CharString>
        <CharString name="at">
          545 737 60 callsubr
          -117 -17 -92 -89 -93 hhcurveto
          -92 -65 88 118 18 hvcurveto
          117 17 92 88 92 hhcurveto
          93 65 -88 -117 -18 hvcurveto
          -434 5 rmoveto
          -170 -25 102 -118 137 hhcurveto
          97 67 53 69 43 hvcurveto
          -62 -2 30 -60 84 hhcurveto
          130 136 155 214 255 -182 170 -274 -344 -247 -254 -325 -291 208 -160 278 -7 hvcurveto
          19 76 rlineto
          -243 7 -168 128 247 vvcurveto
          281 200 222 285 238 136 -141 -208 -175 -93 -117 -71 -29 -15 18 38 5 vhcurveto
          25 161 rlineto
          152 24 -92 120 -151 hhcurveto
          -146 -137 -109 -169 -25 hvcurveto
          endchar
        </CharString>
        <CharString name="atilde">
          -106 callsubr
          -318 333 -76 callsubr
        </CharString>
        <CharString name="b">
          87 callsubr
          301 -91 -740 91 112 -48 callsubr
        </CharString>
        <CharString name="backslash">
          71 247 942 rmoveto
          -91 hlineto
          313 -1112 rlineto
          90 hlineto
          endchar
        </CharString>
        <CharString name="bar">
          -311 105 795 rmoveto
          -901 91 901 vlineto
          endchar
        </CharString>
        <CharString name="braceleft">
          -62 227 373 rmoveto
          73 15 32 54 66 65 -16 43 84 vvcurveto
          136 50 80 78 29 vhcurveto
          16 -91 vlineto
          -38 -17 -86 -42 -185 -72 17 -54 -69 vvcurveto
          -45 -13 -67 -88 -17 vhcurveto
          -42 vlineto
          88 -18 13 -66 -45 -69 -17 -54 -72 vvcurveto
          -185 86 -42 38 -17 vhcurveto
          91 16 hlineto
          -78 29 -50 80 136 84 16 43 65 vvcurveto
          66 -29 54 -76 15 vhcurveto
          endchar
        </CharString>
        <CharString name="braceright">
          -65 323 371 rmoveto
          -76 -15 -28 -54 -66 -65 16 -43 -84 vvcurveto
          -136 -51 -80 -78 -29 vhcurveto
          -16 92 vlineto
          38 17 86 42 185 72 -17 54 69 vvcurveto
          45 12 66 88 18 vhcurveto
          42 vlineto
          -88 17 -12 67 45 69 17 54 72 vvcurveto
          185 -86 42 -38 17 vhcurveto
          -92 -16 hlineto
          78 -29 51 -80 -136 -84 -16 -43 -65 vvcurveto
          -66 31 -54 73 -15 vhcurveto
          endchar
        </CharString>
        <CharString name="bracketleft">
          -138 160 -171 rmoveto
          170 77 -86 960 86 76 -170 hlineto
          endchar
        </CharString>
        <CharString name="bracketright">
          -138 315 942 rmoveto
          -171 -76 86 -960 -86 -77 171 hlineto
          endchar
        </CharString>
        <CharString name="breve">
          -307 295 739 -34 callsubr
          endchar
        </CharString>
        <CharString name="brokenbar">
          -311 105 272 rmoveto
          -378 91 378 vlineto
          145 vmoveto
          378 -91 -378 vlineto
          endchar
        </CharString>
        <CharString name="bullet">
          -166 222 211 rmoveto
          70 54 54 68 69 -54 54 -70 -68 -54 -54 -69 -68 54 -54 68 hvcurveto
          endchar
        </CharString>
        <CharString name="c">
          -54 callsubr
          endchar
        </CharString>
        <CharString name="cacute">
          -54 callsubr
          145 383 -89 callsubr
        </CharString>
        <CharString name="caron">
          -315 148 671 -85 callsubr
        </CharString>
        <CharString name="ccaron">
          -54 callsubr
          261 397 -85 callsubr
        </CharString>
        <CharString name="ccedilla">
          -12 38 callsubr
          -158 94 -108 138 -15 vhcurveto
          -107 -18 callsubr
          45 vlineto
          117 10 72 71 30 95 rrcurveto
          -55 callsubr
          endchar
        </CharString>
        <CharString name="cedilla">
          -346 126 7 rmoveto
          -64 -121 55 hlineto
          -28 callsubr
          endchar
        </CharString>
        <CharString name="cent">
          103 330 446 rmoveto
          87 42 -39 -53 17 hvcurveto
          85 hlineto
          -13 85 -72 72 -117 11 rrcurveto
          88 -60 -88 vlineto
          -153 -14 -75 -117 -131 vvcurveto
          -130 75 -116 153 -14 vhcurveto
          -89 60 89 vlineto
          117 10 72 72 13 85 rrcurveto
          -85 hlineto
          -53 -17 -42 -39 -87 hhcurveto
          -104 -70 69 117 116 70 69 104 hvcurveto
          endchar
        </CharString>
        <CharString name="circumflex">
          -315 287 674 -65 callsubr
        </CharString>
        <CharString name="colon">
          -310 143 hmoveto
          59 callsubr
          427 vmoveto
          33 26 26 32 32 -26 26 -33 -32 -26 -26 -32 -32 26 -26 32 hvcurveto
          endchar
        </CharString>
        <CharString name="comma">
          6 callsubr
        </CharString>
        <CharString name="copyright">
          178 741 346 rmoveto
          -208 -140 -147 -206 -206 -141 147 208 208 141 146 206 206 140 -146 -208 vhcurveto
          -648 hmoveto
          -189 116 -126 186 185 116 126 189 190 -116 124 -185 -186 -116 -124 -190 vhcurveto
          84 1 rmoveto
          -140 96 -92 121 102 74 62 83 27 vhcurveto
          -87 hlineto
          -46 -17 -35 -31 -64 hhcurveto
          -75 -57 52 112 112 57 51 75 56 44 -24 -53 16 hvcurveto
          87 hlineto
          90 -27 -74 55 -102 hhcurveto
          -121 -96 -91 -140 hvcurveto
          endchar
        </CharString>
        <CharString name="currency">
          -75 91 377 rmoveto
          -40 10 -35 18 -28 vhcurveto
          -59 -59 45 -45 59 59 rlineto
          -18 27 34 -10 39 hhcurveto
          40 37 11 20 29 hvcurveto
          62 -62 45 45 -62 60 rlineto
          19 28 11 34 40 vvcurveto
          40 -11 35 -18 28 vhcurveto
          61 61 -45 45 -62 -62 rlineto
          19 -28 -35 10 -39 hhcurveto
          -38 -35 -10 -18 -29 hvcurveto
          -61 61 -45 -45 61 -60 rlineto
          -19 -28 -11 -35 -41 vvcurveto
          281 hmoveto
          -80 -53 -40 -54 -55 -46 40 80 79 48 42 55 55 50 -42 -79 vhcurveto
          endchar
        </CharString>
        <CharString name="d">
          -78 callsubr
          79 callsubr
          740 -92 -301 -102 callsubr
          endchar
        </CharString>
        <CharString name="dagger">
          -57 313 539 rmoveto
          54 callsubr
          -10 -745 rlineto
          91 hlineto
          -10 745 193 -9 rlineto
          73 vlineto
          endchar
        </CharString>
        <CharString name="daggerdbl">
          -55 507 549 rmoveto
          -193 -10 54 callsubr
          rlineto
          -449 vlineto
          -193 9 rlineto
          -72 vlineto
          193 9 -10 -242 rlineto
          91 hlineto
          -10 242 193 -9 rlineto
          72 vlineto
          -193 -9 rlineto
          449 vlineto
          193 -9 rlineto
          endchar
        </CharString>
        <CharString name="dcaron">
          147 646 71 callsubr
          65 28 callsubr
          -7 35 hvcurveto
          -699 -462 -84 callsubr
          79 callsubr
          740 -92 -301 -102 callsubr
          endchar
        </CharString>
        <CharString name="dcroat">
          58 419 590 rmoveto
          84 -151 hlineto
          -81 callsubr
          -75 callsubr
          hvcurveto
          79 callsubr
          590 60 59 -60 91 -92 -91 -84 vlineto
          84 -375 -97 callsubr
          endchar
        </CharString>
        <CharString name="degree">
          -200 29 523 rmoveto
          -107 71 -69 101 102 80 69 107 108 -76 69 -101 -101 -76 -69 -108 vhcurveto
          280 hmoveto
          -80 -53 -40 -54 -55 -45 40 80 80 47 42 55 55 50 -42 -80 vhcurveto
          endchar
        </CharString>
        <CharString name="dieresis">
          -323 64 620 -99 callsubr
        </CharString>
        <CharString name="divide">
          96 365 95 rmoveto
          32 26 26 32 74 callsubr
          -32 26 -26 33 hvcurveto
          425 vmoveto
          32 26 26 33 74 callsubr
          -33 26 -26 33 hvcurveto
          -255 -194 rmoveto
          509 80 -509 hlineto
          endchar
        </CharString>
        <CharString name="dollar">
          40 264 -87 rmoveto
          56 81 hlineto
          137 11 70 95 94 vvcurveto
          138 -107 27 -100 22 vhcurveto
          240 vlineto
          60 -12 33 -42 4 -42 rrcurveto
          100 hlineto
          -12 101 -73 64 -112 9 rrcurveto
          81 -56 -81 vlineto
          -125 -10 -79 -76 -108 vvcurveto
          -139 105 -28 99 -23 vhcurveto
          -245 vlineto
          -71 9 -32 43 -4 51 rrcurveto
          -97 hlineto
          -105 87 -65 117 -9 vhcurveto
          -115 514 rmoveto
          72 49 37 66 6 vhcurveto
          -228 vlineto
          -64 18 -51 25 70 vvcurveto
          289 -319 rmoveto
          -61 -43 -49 -75 -9 vhcurveto
          231 vlineto
          66 -17 52 -25 -70 vvcurveto
          endchar
        </CharString>
        <CharString name="dotaccent">
          -484 64 620 rmoveto
          -26 callsubr
        </CharString>
        <CharString name="dotlessi">
          58 callsubr
          549 99 callsubr
        </CharString>
        <CharString name="e">
          -107 callsubr
          endchar
        </CharString>
        <CharString name="eacute">
          -107 callsubr
          -115 174 -89 callsubr
        </CharString>
        <CharString name="ecaron">
          -107 callsubr
          188 vmoveto
          -86 callsubr
        </CharString>
        <CharString name="ecircumflex">
          -107 callsubr
          139 191 -65 callsubr
        </CharString>
        <CharString name="edieresis">
          -107 callsubr
          -80 137 -99 callsubr
        </CharString>
        <CharString name="edotaccent">
          -107 callsubr
          137 vmoveto
          -26 callsubr
        </CharString>
        <CharString name="egrave">
          -107 callsubr
          -115 216 -47 callsubr
        </CharString>
        <CharString name="eight">
          23 191 389 rmoveto
          -75 -25 -53 -67 -95 vvcurveto
          -136 103 -86 151 151 103 86 136 95 -53 67 -74 25 vhcurveto
          61 27 47 59 80 vvcurveto
          108 -78 89 -157 -156 -79 -89 -107 -82 44 -54 65 -31 vhcurveto
          126 286 rmoveto
          92 57 -45 -84 -72 -60 -53 -89 -88 -61 53 72 84 58 45 91 hvcurveto
          -326 vmoveto
          94 73 -45 -100 -88 -64 -59 -103 -103 -65 58 89 101 75 44 93 hvcurveto
          endchar
        </CharString>
        <CharString name="ellipsis">
          -11 301 53 callsubr
          187 53 callsubr
          -375 53 callsubr
          endchar
        </CharString>
        <CharString name="emacron">
          -107 callsubr
          -176 154 -10 callsubr
        </CharString>
        <CharString name="emdash">
          309 94 327 rmoveto
          734 78 -734 hlineto
          endchar
        </CharString>
        <CharString name="endash">
          102 94 327 rmoveto
          526 78 -526 hlineto
          endchar
        </CharString>
        <CharString name="eogonek">
          -1 38 callsubr
          -163 100 -110 144 -10 vhcurveto
          -2 -8 -2 -9 -10 vvcurveto
          -65 53 -40 74 2 callsubr
          24 17 9 29 11 hvcurveto
          71 27 51 55 24 67 rrcurveto
          -96 callsubr
          vhcurveto
          266 209 -57 callsubr
          endchar
        </CharString>
        <CharString name="equal">
          159 126 218 rmoveto
          520 79 -520 hlineto
          137 vmoveto
          520 80 -520 hlineto
          endchar
        </CharString>
        <CharString name="estimated">
          149 686 136 rmoveto
          -41 45 rlineto
          -80 -81 -73 -48 -102 hhcurveto
          -94 -62 33 62 -51 hvcurveto
          166 532 62 vlineto
          167 -119 157 -215 -215 -118 -163 -207 -216 146 -121 196 116 98 55 88 83 vhcurveto
          -504 243 rmoveto
          165 vlineto
          66 46 70 30 82 hhcurveto
          81 67 -31 -54 42 hvcurveto
          -176 vlineto
          endchar
        </CharString>
        <CharString name="eth">
          18 16 callsubr
          163 120 108 218 127 -44 112 -87 99 vhcurveto
          93 31 rlineto
          59 vlineto
          -136 -46 -14 14 -16 14 -16 13 rlinecurve
          -100 hlineto
          28 -23 25 -21 22 -21 -84 -28 rcurveline
          -59 vlineto
          128 43 42 -46 29 -44 21 -51 rlinecurve
          45 -48 -50 23 -71 hhcurveto
          -155 -119 -111 -173 hvcurveto
          endchar
        </CharString>
        <CharString name="exclam">
          -202 173 207 rmoveto
          74 hlineto
          10 541 rlineto
          -95 hlineto
          50 -748 rmoveto
          59 callsubr
          endchar
        </CharString>
        <CharString name="exclamdown">
          -188 173 351 rmoveto
          74 hlineto
          10 -541 rlineto
          -95 hlineto
          50 748 rmoveto
          33 26 -26 -32 -33 -26 -26 -33 -32 -26 26 33 32 26 26 32 hvcurveto
          endchar
        </CharString>
        <CharString name="f">
          -282 22 callsubr
          endchar
        </CharString>
        <CharString name="fi">
          -41 94 hmoveto
          92 475 219 -475 91 549 -310 11 callsubr
          357 162 rmoveto
          35 26 27 35 34 -26 29 callsubr
          endchar
        </CharString>
        <CharString name="five">
          22 90 731 rmoveto
          -413 83 vlineto
          63 25 53 41 73 hhcurveto
          108 53 -61 -108 -101 -50 -75 -111 -85 -60 44 72 -19 hvcurveto
          -87 hlineto
          -112 20 85 -81 146 hhcurveto
          169 78 113 143 113 -56 131 -177 -71 -65 -35 -42 -28 hvcurveto
          229 349 79 vlineto
          endchar
        </CharString>
        <CharString name="fl">
          -41 22 callsubr
          311 -475 rmoveto
          51 callsubr
        </CharString>
        <CharString name="florin">
          -282 23 475 rmoveto
          70 hlineto
          -56 -532 rlineto
          -48 -5 -18 -18 -36 hhcurveto
          -16 hlineto
          -7 -74 rlineto
          23 hlineto
          91 49 40 100 10 hvcurveto
          56 532 rlineto
          116 hlineto
          7 74 rlineto
          -115 hlineto
          5 46 rlineto
          69 7 30 29 80 hhcurveto
          8 74 rlineto
          -137 -67 -52 -120 -12 hvcurveto
          -5 -46 rlineto
          -72 hlineto
          endchar
        </CharString>
        <CharString name="four">
          22 417 hmoveto
          88 162 97 78 -97 480 -116 hlineto
          -344 -494 rlineto
          -64 372 vlineto
          -266 78 rmoveto
          269 396 rlineto
          -396 vlineto
          endchar
        </CharString>
        <CharString name="fraction">
          -18 68 hmoveto
          65 callsubr
          endchar
        </CharString>
        <CharString name="g">
          58 503 274 -77 callsubr
          endchar
        </CharString>
        <CharString name="gbreve">
          58 503 274 -77 callsubr
          438 461 -34 callsubr
          endchar
        </CharString>
        <CharString name="germandbls">
          43 75 553 rmoveto
          -553 91 556 vlineto
          70 50 46 63 62 45 -47 -61 -46 -21 -35 -42 -22 vhcurveto
          -33 -17 rlineto
          -48 vlineto
          158 -101 rlineto
          60 -38 25 -36 -46 vvcurveto
          -54 -35 -50 -70 -66 -36 37 54 -4 vhcurveto
          -80 hlineto
          -111 93 -60 95 97 99 67 117 86 -37 55 -95 58 vhcurveto
          -106 67 rlineto
          62 33 29 46 60 vvcurveto
          84 -63 86 -135 -119 -87 -74 -123 vhcurveto
          endchar
        </CharString>
        <CharString name="grave">
          -373 10 699 -47 callsubr
        </CharString>
        <CharString name="greater">
          -9 132 136 rmoveto
          114 hlineto
          242 230 -242 229 rlineto
          -114 hlineto
          242 -229 rlineto
          endchar
        </CharString>
        <CharString name="greaterequal">
          -62 215 211 rmoveto
          242 192 -242 192 rlineto
          -122 hlineto
          241 -191 -241 -193 rlineto
          4 -48 rmoveto
          -68 357 68 vlineto
          endchar
        </CharString>
        <CharString name="guillemotleft">
          -151 46 callsubr
          82 175 rmoveto
          99 175 rlineto
          -90 hlineto
          -95 -175 95 -175 rlineto
          90 hlineto
          endchar
        </CharString>
        <CharString name="guillemotright">
          -151 320 120 rmoveto
          63 callsubr
          98 -175 -98 -175 rlineto
          -92 hmoveto
          55 callsubr
        </CharString>
        <CharString name="guilsinglleft">
          -332 46 callsubr
          endchar
        </CharString>
        <CharString name="guilsinglright">
          -332 139 120 rmoveto
          55 callsubr
        </CharString>
        <CharString name="h">
          -61 callsubr
          280 91 callsubr
        </CharString>
        <CharString name="hungarumlaut">
          -279 240 755 -36 callsubr
        </CharString>
        <CharString name="hyphen">
          42 callsubr
        </CharString>
        <CharString name="i">
          58 callsubr
          549 -91 hlineto
          46 88 21 callsubr
          endchar
        </CharString>
        <CharString name="iacute">
          58 callsubr
          549 23 callsubr
        </CharString>
        <CharString name="icircumflex">
          58 callsubr
          549 39 callsubr
        </CharString>
        <CharString name="idieresis">
          58 callsubr
          549 -91 hlineto
          -35 71 -99 callsubr
        </CharString>
        <CharString name="igrave">
          58 callsubr
          549 47 callsubr
        </CharString>
        <CharString name="imacron">
          58 callsubr
          549 73 callsubr
        </CharString>
        <CharString name="indianrupee">
          5 44 624 rmoveto
          330 -63 hlineto
          -14 0 -14 -12 vvcurveto
          -330 -69 325 hlineto
          -103 -16 -59 -9 -205 hhcurveto
          -140 vlineto
          -129 69 -81 133 128 71 66 135 2 vhcurveto
          -83 hlineto
          -81 -33 -48 -84 -87 -30 56 79 vhcurveto
          77 vlineto
          180 76 41 137 21 hvcurveto
          136 69 -130 hlineto
          1 12 0 12 13 vvcurveto
          66 129 69 -544 vlineto
          endchar
        </CharString>
        <CharString name="infinity">
          59 26 347 rmoveto
          -94 68 -53 80 -1 vhcurveto
          71 -1 57 42 32 55 rrcurveto
          -51 42 49 -45 67 hhcurveto
          83 70 55 94 94 -70 53 -78 1 hvcurveto
          -71 1 -57 -43 -33 -55 rrcurveto
          51 -41 -47 46 -68 hhcurveto
          -84 -70 -55 -94 hvcurveto
          157 -79 rmoveto
          -46 -33 28 51 51 33 29 46 42 34 -39 -45 37 hvcurveto
          -45 -27 -43 -30 -43 hhcurveto
          306 hmoveto
          -44 -35 38 45 -35 hvcurveto
          45 26 44 31 44 hhcurveto
          45 33 -28 -51 -51 -33 -29 -45 hvcurveto
          endchar
        </CharString>
        <CharString name="integral">
          -351 43 -57 rmoveto
          -48 -5 -18 -18 -35 hhcurveto
          -16 hlineto
          -8 -74 rlineto
          23 hlineto
          91 48 40 100 11 hvcurveto
          92 834 rlineto
          49 5 18 18 35 hhcurveto
          16 hlineto
          8 74 rlineto
          -23 hlineto
          -91 -48 -40 -101 -11 hvcurveto
          endchar
        </CharString>
        <CharString name="iogonek">
          121 637 21 callsubr
          -140 -733 12 callsubr
          -1 543 -91 -546 95 callsubr
        </CharString>
        <CharString name="j">
          121 637 21 callsubr
          -46 -88 rmoveto
          -667 vlineto
          -48 -17 -19 -52 vhcurveto
          -38 -75 56 hlineto
          90 52 42 100 hvcurveto
          667 vlineto
          endchar
        </CharString>
        <CharString name="k">
          -99 75 hmoveto
          20 callsubr
        </CharString>
        <CharString name="l">
          75 hmoveto
          51 callsubr
        </CharString>
        <CharString name="lacute">
          58 callsubr
          740 23 callsubr
        </CharString>
        <CharString name="lcaron">
          -223 244 71 callsubr
          66 35 43 callsubr
          -7 35 hvcurveto
          -261 -740 rmoveto
          51 callsubr
        </CharString>
        <CharString name="less">
          24 226 366 rmoveto
          242 229 rlineto
          -115 hlineto
          -242 -229 242 -230 rlineto
          115 hlineto
          endchar
        </CharString>
        <CharString name="lessequal">
          -62 457 211 rmoveto
          -241 193 241 191 rlineto
          -122 hlineto
          -242 -192 242 -192 rlineto
          -239 -116 rmoveto
          357 68 -357 hlineto
          endchar
        </CharString>
        <CharString name="logicalnot">
          126 45 360 rmoveto
          551 -140 90 213 -641 hlineto
          endchar
        </CharString>
        <CharString name="lozenge">
          -58 36 350 rmoveto
          241 -242 241 242 -241 241 rlineto
          143 -241 rmoveto
          -143 -144 -143 144 143 143 rlineto
          endchar
        </CharString>
        <CharString name="lslash">
          4 267 rmoveto
          71 28 rlineto
          -295 91 330 vlineto
          71 28 rlineto
          82 vlineto
          -71 -28 rlineto
          328 -91 -363 vlineto
          -71 -28 rlineto
          endchar
        </CharString>
        <CharString name="m">
          408 75 hmoveto
          -38 callsubr
          310 vlineto
          113 60 56 91 91 60 -56 -113 vhcurveto
          -310 90 325 vlineto
          156 -97 77 -118 -89 -71 -45 -74 -39 vhcurveto
          79 -35 -74 40 -82 hhcurveto
          -76 -66 -33 -65 -37 hvcurveto
          89 91 callsubr
        </CharString>
        <CharString name="macron">
          72 callsubr
        </CharString>
        <CharString name="minus">
          42 callsubr
        </CharString>
        <CharString name="multiply">
          107 146 524 rmoveto
          155 -156 -158 -157 59 -60 159 158 157 -158 57 57 -157 158 157 156 -60 59 -157 -156 -155 156 rlineto
          endchar
        </CharString>
        <CharString name="n">
          -50 callsubr
          endchar
        </CharString>
        <CharString name="nacute">
          -50 callsubr
          129 -40 callsubr
        </CharString>
        <CharString name="ncaron">
          -50 callsubr
          244 0 callsubr
        </CharString>
        <CharString name="nine">
          23 103 187 rmoveto
          -99 13 71 -87 142 hhcurveto
          183 54 130 250 243 -67 123 -178 -151 -87 -97 -143 -150 105 -84 127 69 68 26 56 36 hvcurveto
          -212 -52 -65 -102 -84 -49 39 70 -15 vhcurveto
          145 164 rmoveto
          -114 -48 71 86 98 59 64 95 94 58 -61 -104 -91 -52 -63 -92 hvcurveto
          endchar
        </CharString>
        <CharString name="notequal">
          150 126 122 rmoveto
          78 hlineto
          87 96 rlineto
          355 79 -283 hlineto
          124 137 rlineto
          159 80 -87 hlineto
          87 96 rlineto
          -79 hlineto
          -87 -96 rlineto
          -354 -80 282 hlineto
          -124 -137 rlineto
          -158 -79 87 hlineto
          endchar
        </CharString>
        <CharString name="ntilde">
          -50 callsubr
          95 58 -76 callsubr
        </CharString>
        <CharString name="numbersign">
          236 447 hmoveto
          88 hlineto
          43 202 rlineto
          154 78 -137 hlineto
          39 182 rlineto
          156 78 -140 82 callsubr
          -209 82 callsubr
          -171 -78 155 hlineto
          -39 -182 rlineto
          -173 -78 156 hlineto
          -43 -202 rlineto
          88 hlineto
          43 202 rlineto
          209 hlineto
          17 78 rmoveto
          -209 hlineto
          39 182 rlineto
          209 hlineto
          endchar
        </CharString>
        <CharString name="o">
          -101 callsubr
          endchar
        </CharString>
        <CharString name="oacute">
          -101 callsubr
          -299 383 -89 callsubr
        </CharString>
        <CharString name="ocircumflex">
          -101 callsubr
          -44 400 -65 callsubr
        </CharString>
        <CharString name="odieresis">
          -101 callsubr
          -264 346 -99 callsubr
        </CharString>
        <CharString name="oe">
          459 16 callsubr
          98 87 46 79 50 vhcurveto
          -79 45 79 -46 98 hhcurveto
          135 82 84 callsubr
          hvcurveto
          -98 hlineto
          -51 -21 -50 -40 -80 hhcurveto
          -96 -71 65 112 -5 hvcurveto
          436 -45 callsubr
          -102 -81 -46 -78 -45 vhcurveto
          78 -48 -84 46 -96 hhcurveto
          -3 callsubr
          hvcurveto
          726 209 rmoveto
          97 -44 callsubr
          92 hhcurveto
          endchar
        </CharString>
        <CharString name="ogonek">
          -358 10 -97 12 callsubr
          -56 hlineto
          -77 -53 -38 -64 hvcurveto
          endchar
        </CharString>
        <CharString name="ograve">
          -101 callsubr
          -299 425 -47 callsubr
        </CharString>
        <CharString name="ohungarumlaut">
          -101 callsubr
          -68 481 -36 callsubr
        </CharString>
        <CharString name="omacron">
          -101 callsubr
          -359 363 -10 callsubr
        </CharString>
        <CharString name="one">
          -291 134 hmoveto
          89 710 -171 -81 82 hlineto
          endchar
        </CharString>
        <CharString name="onehalf">
          40 53 hmoveto
          84 hlineto
          365 57 callsubr
          -84 hlineto
          -335 -341 64 callsubr
          279 -391 3 callsubr
        </CharString>
        <CharString name="onequarter">
          27 53 hmoveto
          84 hlineto
          381 57 callsubr
          -84 hlineto
          115 45 callsubr
          -227 93 callsubr
          -395 234 64 callsubr
          endchar
        </CharString>
        <CharString name="onesuperior">
          -420 71 352 64 callsubr
          endchar
        </CharString>
        <CharString name="ordfeminine">
          -162 33 530 rmoveto
          -105 74 -78 92 65 46 32 40 21 vhcurveto
          -66 73 350 -73 -66 vlineto
          41 -21 -46 31 -65 hhcurveto
          -92 -74 -73 -106 hvcurveto
          298 -2 rmoveto
          -77 -52 -46 -59 -57 -53 48 77 77 53 43 57 59 52 -45 -77 vhcurveto
          endchar
        </CharString>
        <CharString name="ordmasculine">
          -176 33 527 rmoveto
          -108 78 -72 103 103 86 72 108 111 -81 71 -103 -103 -83 -71 -111 vhcurveto
          294 hmoveto
          -81 -56 -42 -57 -57 -47 42 81 84 49 42 58 57 53 -42 -84 vhcurveto
          endchar
        </CharString>
        <CharString name="oslash">
          20 29 hmoveto
          74 hlineto
          40 44 rlineto
          -34 45 56 -19 64 hhcurveto
          5 callsubr
          78 -25 65 -41 48 hvcurveto
          76 84 rlineto
          -74 hlineto
          -42 -46 rlineto
          35 -47 -59 20 -65 hhcurveto
          -3 callsubr
          -78 24 -66 40 -48 hvcurveto
          29 192 rmoveto
          138 84 71 97 43 42 -14 -28 33 vhcurveto
          -268 -294 rlineto
          -20 33 -11 42 52 vvcurveto
          367 hmoveto
          -136 -94 -72 -97 -41 -39 13 26 -30 vhcurveto
          269 294 rlineto
          20 -32 12 -42 -51 vvcurveto
          endchar
        </CharString>
        <CharString name="otilde">
          -101 callsubr
          -333 333 -76 callsubr
        </CharString>
        <CharString name="p">
          87 callsubr
          110 -91 -809 91 372 -48 callsubr
        </CharString>
        <CharString name="paragraph">
          -14 274 30 callsubr
          -162 -75 -90 -114 -114 73 -89 164 hvcurveto
          11 -286 85 620 68 -620 85 693 hlineto
          endchar
        </CharString>
        <CharString name="parenleft">
          -51 416 -184 rmoveto
          97 9 hlineto
          -191 149 -82 217 212 vvcurveto
          211 82 216 191 150 vhcurveto
          9 -97 vlineto
          -157 -115 -107 -221 -250 vvcurveto
          -251 107 -221 157 -115 vhcurveto
          endchar
        </CharString>
        <CharString name="parenright">
          -50 146 989 rmoveto
          -97 -9 hlineto
          190 -150 83 -216 -211 vvcurveto
          -212 -83 -217 -190 -149 vhcurveto
          -9 97 vlineto
          157 115 107 221 251 vvcurveto
          250 -107 221 -157 115 vhcurveto
          endchar
        </CharString>
        <CharString name="partialdiff">
          -41 428 322 rmoveto
          -136 -85 -120 -100 -68 -43 50 107 145 79 115 100 72 45 -56 -105 vhcurveto
          -389 -99 rmoveto
          -159 85 -73 106 166 136 161 260 206 -80 122 -150 -30 -29 -4 -10 -33 vhcurveto
          -54 vlineto
          8 29 26 3 24 hhcurveto
          95 49 -80 -113 6 hvcurveto
          45 -29 -39 23 -57 hhcurveto
          -157 -118 -161 -174 hvcurveto
          endchar
        </CharString>
        <CharString name="percent">
          72 -39 callsubr
          endchar
        </CharString>
        <CharString name="period">
          -386 113 53 callsubr
          endchar
        </CharString>
        <CharString name="periodcentered">
          33 callsubr
        </CharString>
        <CharString name="perthousand">
          402 -39 callsubr
          184 -91 rmoveto
          -92 62 -56 84 83 62 56 92 91 -62 57 -83 -84 25 callsubr
          -41 -28 27 64 64 28 27 41 hvcurveto
          endchar
        </CharString>
        <CharString name="pi">
          94 36 476 rmoveto
          78 -476 91 476 288 -476 91 476 79 73 -627 hlineto
          endchar
        </CharString>
        <CharString name="plus">
          129 328 621 rmoveto
          -215 -212 -80 212 -215 85 215 212 80 -212 215 vlineto
          endchar
        </CharString>
        <CharString name="plusminus">
          132 329 623 rmoveto
          -168 -212 -80 212 -165 -212 -80 510 80 -212 165 212 80 -212 168 vlineto
          endchar
        </CharString>
        <CharString name="product">
          126 36 621 rmoveto
          78 -621 91 621 328 -621 91 621 79 72 -667 hlineto
          endchar
        </CharString>
        <CharString name="q">
          -78 callsubr
          -372 92 809 -92 -110 -102 callsubr
          endchar
        </CharString>
        <CharString name="question">
          14 99 540 rmoveto
          85 hlineto
          81 52 44 81 83 49 -48 -81 -120 -78 -21 -121 1 vhcurveto
          -40 -197 86 132 hlineto
          153 1 86 53 152 vvcurveto
          127 -87 78 -132 -129 -89 -79 -123 1 vhcurveto
          98 -490 rmoveto
          -32 26 -26 32 33 15 callsubr
          -33 -32 -26 -26 -33 vhcurveto
          endchar
        </CharString>
        <CharString name="questiondown">
          14 527 10 rmoveto
          -85 hlineto
          -81 -52 -44 -81 -83 -49 48 81 120 78 21 121 -1 vhcurveto
          40 197 -86 -132 hlineto
          -153 -1 -86 -53 -152 vvcurveto
          -127 87 -78 132 129 89 79 123 -1 vhcurveto
          -98 490 rmoveto
          74 callsubr
          -33 26 -26 33 32 26 26 33 vhcurveto
          endchar
        </CharString>
        <CharString name="quotedbl">
          -326 44 597 66 callsubr
          147 -199 66 callsubr
          endchar
        </CharString>
        <CharString name="quotedblbase">
          6 callsubr
        </CharString>
        <CharString name="quotedblleft">
          -325 32 callsubr
          227 hmoveto
          48 callsubr
          -66 -35 -33 -80 -27 3 -30 8 -35 hvcurveto
          endchar
        </CharString>
        <CharString name="quotedblright">
          -325 160 783 -24 callsubr
          -227 hmoveto
          41 callsubr
        </CharString>
        <CharString name="quoteleft">
          -460 32 callsubr
          endchar
        </CharString>
        <CharString name="quoteright">
          -460 25 783 rmoveto
          41 callsubr
        </CharString>
        <CharString name="quotesinglbase">
          6 callsubr
        </CharString>
        <CharString name="quotesingle">
          -461 44 597 66 callsubr
          endchar
        </CharString>
        <CharString name="r">
          -1 callsubr
          endchar
        </CharString>
        <CharString name="racute">
          -1 callsubr
          -53 657 -89 callsubr
        </CharString>
        <CharString name="radical">
          176 286 -43 rmoveto
          494 911 rlineto
          -73 hlineto
          -433 -799 -112 200 -140 -84 27 -48 65 39 124 -219 rlineto
          endchar
        </CharString>
        <CharString name="rcaron">
          -1 callsubr
          62 671 -85 callsubr
        </CharString>
        <CharString name="registered">
          178 748 346 rmoveto
          208 -142 146 -208 -208 -142 -146 -208 -208 142 -147 208 208 142 147 208 vhcurveto
          -655 hmoveto
          190 118 124 187 188 117 -124 -190 -189 -117 -126 -188 -187 -118 126 189 vhcurveto
          413 104 rmoveto
          -53 -29 -35 -71 vhcurveto
          -90 177 90 hlineto
          71 29 -34 -55 hvcurveto
          -250 136 rmoveto
          -463 60 191 62 vlineto
          121 -191 rlineto
          75 hlineto
          -127 194 rlineto
          85 14 36 56 63 vvcurveto
          77 -53 59 -109 vhcurveto
          endchar
        </CharString>
        <CharString name="ring">
          -383 10 712 -68 callsubr
          endchar
        </CharString>
        <CharString name="s">
          -62 callsubr
          endchar
        </CharString>
        <CharString name="sacute">
          -62 callsubr
          92 263 -89 callsubr
        </CharString>
        <CharString name="scaron">
          -62 callsubr
          208 277 -85 callsubr
        </CharString>
        <CharString name="section">
          -38 78 538 rmoveto
          -69 46 -34 59 -28 vhcurveto
          -87 -25 -51 -61 -77 vvcurveto
          -97 71 -49 132 -43 vhcurveto
          128 -42 32 -22 -47 vvcurveto
          -58 -45 -29 -76 -77 -33 41 50 -4 vhcurveto
          -87 hlineto
          -98 87 -57 114 134 76 71 86 69 -46 34 -59 28 vhcurveto
          89 28 48 61 74 vvcurveto
          97 -70 49 -133 43 vhcurveto
          -127 42 -32 22 47 vvcurveto
          58 44 29 77 76 33 -41 -50 4 vhcurveto
          88 hlineto
          98 -88 57 -113 -134 -76 -71 -86 vhcurveto
          360 -294 rmoveto
          -61 -55 -53 -94 -94 -58 53 61 61 54 53 94 92 61 -50 -64 vhcurveto
          endchar
        </CharString>
        <CharString name="semicolon">
          -336 151 428 rmoveto
          -33 callsubr
          -53 -361 -5 callsubr
        </CharString>
        <CharString name="seven">
          -52 40 728 rmoveto
          -77 395 vlineto
          -299 -651 rlineto
          100 hlineto
          286 660 rlineto
          68 vlineto
          endchar
        </CharString>
        <CharString name="six">
          32 553 568 rmoveto
          94 -11 -72 85 -135 hhcurveto
          -181 -74 -142 -220 -222 43 -163 219 159 77 108 135 152 -93 89 -131 -87 -75 -39 -65 -36 hvcurveto
          217 4 59 73 116 hhcurveto
          80 39 -34 -68 17 hvcurveto
          -136 -162 rmoveto
          107 50 -65 -103 -99 -59 -62 -95 -114 -55 70 100 111 85 48 81 hvcurveto
          endchar
        </CharString>
        <CharString name="slash">
          62 callsubr
        </CharString>
        <CharString name="space">
          -312 endchar
        </CharString>
        <CharString name="sterling">
          27 109 497 rmoveto
          -55 11 -37 12 -33 vhcurveto
          -87 -64 109 hlineto
          5 -18 3 -19 -22 vvcurveto
          -92 -32 -50 -47 -55 vhcurveto
          19 -53 rlineto
          443 76 -365 hlineto
          44 49 24 55 69 vvcurveto
          20 -4 20 -5 20 vhcurveto
          178 64 -198 hlineto
          -13 38 -12 39 43 vvcurveto
          103 62 38 72 92 36 -56 -74 vhcurveto
          82 hlineto
          112 -1 -64 95 -146 hhcurveto
          -127 -91 -85 -128 hvcurveto
          endchar
        </CharString>
        <CharString name="summation">
          -155 40 588 rmoveto
          262 -273 -262 -268 rlineto
          -105 377 71 -299 vlineto
          265 269 rlineto
          70 vlineto
          -265 270 rlineto
          299 71 -377 hlineto
          endchar
        </CharString>
        <CharString name="t">
          -257 95 141 -11 callsubr
        </CharString>
        <CharString name="tcaron">
          -255 268 761 rmoveto
          -86 49 -15 vlineto
          -23 -14 -8 -33 vhcurveto
          -43 vlineto
          66 35 26 67 27 -3 20 69 callsubr
          -265 -620 -11 callsubr
        </CharString>
        <CharString name="thorn">
          87 callsubr
          301 -91 -1000 91 372 -48 callsubr
        </CharString>
        <CharString name="three">
          -23 60 560 rmoveto
          88 hlineto
          63 10 49 45 84 hhcurveto
          92 46 -48 -71 -82 -66 -38 -122 -1 hvcurveto
          -25 -76 24 hlineto
          131 72 -36 -109 -75 -47 -59 -99 -96 -57 57 73 -7 hvcurveto
          -86 hlineto
          -135 10 102 -72 135 hhcurveto
          151 79 90 112 104 -51 65 -80 22 hvcurveto
          5 vlineto
          67 21 51 63 80 vvcurveto
          106 -78 82 -143 -126 -97 -67 -119 -11 vhcurveto
          endchar
        </CharString>
        <CharString name="threequarters">
          69 112 hmoveto
          84 hlineto
          409 57 callsubr
          -83 hlineto
          83 45 callsubr
          -228 93 callsubr
          -503 498 -19 callsubr
        </CharString>
        <CharString name="threesuperior">
          -283 23 616 -19 callsubr
        </CharString>
        <CharString name="tilde">
          -278 10 607 -76 callsubr
        </CharString>
        <CharString name="trademark">
          171 22 649 rmoveto
          79 -297 73 hlineto
          -1 297 rlineto
          80 55 -231 hlineto
          293 -352 rmoveto
          68 246 hlineto
          106 -246 rlineto
          51 hlineto
          107 242 rlineto
          -242 70 352 -86 vlineto
          -115 -265 -113 265 rlineto
          -88 hlineto
          endchar
        </CharString>
        <CharString name="two">
          -33 56 10 rmoveto
          479 77 -340 hlineto
          119 108 199 148 178 vvcurveto
          133 -89 81 -137 -129 -97 -80 -153 -5 vhcurveto
          87 hlineto
          90 4 47 65 94 hhcurveto
          100 36 -62 -77 -147 -190 -140 -178 -156 hvcurveto
          endchar
        </CharString>
        <CharString name="twosuperior">
          -290 24 611 3 callsubr
        </CharString>
        <CharString name="u">
          -94 callsubr
          endchar
        </CharString>
        <CharString name="uacute">
          -94 callsubr
          -354 657 -89 callsubr
        </CharString>
        <CharString name="ucircumflex">
          -94 callsubr
          -100 674 -65 callsubr
        </CharString>
        <CharString name="udieresis">
          -94 callsubr
          -319 620 -99 callsubr
        </CharString>
        <CharString name="ugrave">
          -94 callsubr
          -354 699 -47 callsubr
        </CharString>
        <CharString name="uhungarumlaut">
          -94 callsubr
          -123 755 -36 callsubr
        </CharString>
        <CharString name="umacron">
          -94 callsubr
          -415 637 -10 callsubr
        </CharString>
        <CharString name="underscore">
          194 143 -122 rmoveto
          532 82 -532 hlineto
          endchar
        </CharString>
        <CharString name="uni00AD">
          42 callsubr
        </CharString>
        <CharString name="uni00B5">
          21 558 -73 callsubr
          -809 90 293 vlineto
          -28 33 44 -14 46 hhcurveto
          76 66 32 65 37 hvcurveto
          -88 91 vlineto
          endchar
        </CharString>
        <CharString name="uni0122">
          165 339 -48 rmoveto
          -86 49 34 callsubr
          -4 30 -7 35 hvcurveto
          -392 395 -67 callsubr
          endchar
        </CharString>
        <CharString name="uni0123">
          58 384 596 rmoveto
          86 -49 23 vlineto
          35 14 18 33 vhcurveto
          44 vlineto
          -65 -36 -34 -80 -26 4 -31 7 -35 hvcurveto
          211 -322 -77 callsubr
          endchar
        </CharString>
        <CharString name="uni0136">
          -14 250 40 callsubr
          -267 48 rmoveto
          19 callsubr
        </CharString>
        <CharString name="uni0137">
          -99 208 9 callsubr
          -224 48 rmoveto
          20 callsubr
        </CharString>
        <CharString name="uni013B">
          -183 189 -48 -24 callsubr
          -206 741 rmoveto
          80 callsubr
        </CharString>
        <CharString name="uni013C">
          72 9 callsubr
          -88 48 rmoveto
          51 callsubr
        </CharString>
        <CharString name="uni0145">
          86 300 -48 -24 callsubr
          140 741 -35 callsubr
          endchar
        </CharString>
        <CharString name="uni0146">
          16 265 -48 -24 callsubr
          -282 48 rmoveto
          -71 callsubr
          89 91 callsubr
        </CharString>
        <CharString name="uni0156">
          5 260 9 callsubr
          97 537 -72 callsubr
          endchar
        </CharString>
        <CharString name="uni0157">
          -244 72 -48 -24 callsubr
          2 348 -9 callsubr
          endchar
        </CharString>
        <CharString name="uni015E">
          -25 149 508 -79 callsubr
          -106 88 -64 117 -9 vhcurveto
          -108 -18 callsubr
          48 vlineto
          131 14 67 93 92 26 callsubr
          endchar
        </CharString>
        <CharString name="uni015F">
          -86 55 394 -21 callsubr
          6 -100 68 -62 105 -10 rrcurveto
          -106 -18 callsubr
          46 vlineto
          104 11 68 60 82 -56 callsubr
          endchar
        </CharString>
        <CharString name="uni0162">
          -66 44 620 rmoveto
          183 -681 78 hlineto
          35 19 -14 -28 -28 -19 -15 -35 hvcurveto
          -139 -63 149 hlineto
          75 52 42 64 62 -49 39 -75 2 hvcurveto
          620 183 73 -457 vlineto
          endchar
        </CharString>
        <CharString name="uni0163">
          -257 95 141 rmoveto
          -60 19 -39 35 -22 vhcurveto
          -134 55 vlineto
          -15 callsubr
          53 41 64 64 -53 38 -77 hvcurveto
          54 vlineto
          -1 8 9 0 9 hhcurveto
          -20 callsubr
        </CharString>
        <CharString name="uni0218">
          -25 245 8 callsubr
          -187 556 -88 callsubr
          endchar
        </CharString>
        <CharString name="uni0219">
          -86 214 8 callsubr
          -250 442 -87 callsubr
          endchar
        </CharString>
        <CharString name="uni021A">
          -66 224 40 callsubr
          -272 668 36 callsubr
          endchar
        </CharString>
        <CharString name="uni021B">
          -257 129 8 callsubr
          -125 189 -11 callsubr
        </CharString>
        <CharString name="uni02C9">
          72 callsubr
        </CharString>
        <CharString name="uni20BA">
          246 281 699 rmoveto
          -93 -224 hlineto
          -164 -41 rlineto
          -67 vlineto
          164 40 rlineto
          -97 vlineto
          -159 -39 rlineto
          -70 vlineto
          159 40 rlineto
          -236 vlineto
          -15 61 57 -7 52 hhcurveto
          257 108 145 289 hvcurveto
          -94 hlineto
          -227 -77 -123 -193 -25 -25 1 6 -28 vhcurveto
          190 vlineto
          169 42 rlineto
          68 vlineto
          -169 -41 rlineto
          97 vlineto
          176 43 rlineto
          69 vlineto
          -176 -44 rlineto
          endchar
        </CharString>
        <CharString name="uni20BD">
          6 29 286 rmoveto
          86 -91 -87 -75 87 -120 91 120 217 75 -217 91 86 callsubr
          96 107 44 callsubr
          hvcurveto
          -225 -335 -86 hlineto
          177 262 rmoveto
          134 hlineto
          88 callsubr
          -79 -44 -52 -104 hvcurveto
          -134 hlineto
          endchar
        </CharString>
        <CharString name="uni2113">
          75 hmoveto
          51 callsubr
        </CharString>
        <CharString name="uni2126">
          171 39 347 rmoveto
          -115 53 -106 95 -54 vhcurveto
          -135 -72 275 75 hlineto
          -114 29 -81 98 142 vvcurveto
          167 109 108 151 148 112 -106 -169 -142 -82 -98 -113 -29 vhcurveto
          -75 274 72 -135 vlineto
          96 54 52 106 115 vvcurveto
          -58 callsubr
          endchar
        </CharString>
        <CharString name="uni2206">
          68 20 71 rmoveto
          -71 640 71 vlineto
          -282 622 rlineto
          -76 hlineto
          265 -622 rmoveto
          -454 hlineto
          227 518 rlineto
          endchar
        </CharString>
        <CharString name="uni2215">
          62 callsubr
        </CharString>
        <CharString name="uni2219">
          33 callsubr
        </CharString>
        <CharString name="uogonek">
          -95 callsubr
          -86 31 callsubr
          61 -1 hlineto
          endchar
        </CharString>
        <CharString name="uring">
          -94 callsubr
          -343 712 -68 callsubr
          endchar
        </CharString>
        <CharString name="v">
          -56 12 549 rmoveto
          214 -549 rlineto
          103 hlineto
          215 549 rlineto
          -98 hlineto
          -169 -464 -168 464 rlineto
          endchar
        </CharString>
        <CharString name="w">
          196 186 hmoveto
          95 hlineto
          124 436 124 -436 rlineto
          94 hlineto
          173 549 rlineto
          -92 hlineto
          -126 -459 -122 459 rlineto
          -94 hlineto
          -129 -458 -127 458 rlineto
          -94 hlineto
          endchar
        </CharString>
        <CharString name="x">
          -134 362 hmoveto
          103 hlineto
          -176 275 177 274 rlineto
          -98 hlineto
          -122 -205 -131 205 rlineto
          -103 hlineto
          177 -277 -177 -272 rlineto
          99 hlineto
          121 204 rlineto
          endchar
        </CharString>
        <CharString name="y">
          -8 callsubr
          endchar
        </CharString>
        <CharString name="yacute">
          -8 callsubr
          152 -40 callsubr
        </CharString>
        <CharString name="ydieresis">
          -8 callsubr
          187 71 -99 callsubr
        </CharString>
        <CharString name="yen">
          -40 41 140 rmoveto
          200 -140 91 140 200 69 -200 53 hlineto
          26 50 174 2 rlineto
          69 -137 vlineto
          162 310 14 callsubr
          163 -310 rlineto
          -137 -69 hlineto
          174 -2 26 -50 rlineto
          -53 -200 vlineto
          endchar
        </CharString>
        <CharString name="z">
          -30 callsubr
          endchar
        </CharString>
        <CharString name="zacute">
          -30 callsubr
          -298 182 -89 callsubr
        </CharString>
        <CharString name="zcaron">
          -30 callsubr
          -183 196 -85 callsubr
        </CharString>
        <CharString name="zdotaccent">
          -30 callsubr
          -183 145 rmoveto
          -26 callsubr
        </CharString>
        <CharString name="zero">
          24 317 731 rmoveto
          203 48 -162 -203 -202 -48 -163 -203 -202 -49 163 202 203 49 162 202 hvcurveto
          -81 vmoveto
          -146 -16 -137 -147 -146 16 -138 146 146 17 138 146 147 -17 137 -146 hvcurveto
          endchar
        </CharString>
</ttFont>
